/* XPM */
static char *Blackhole[] = {
/* columns rows colors chars-per-pixel */
"48 48 167 2 ",
"   c #050402",
".  c #0A0705",
"X  c #0B0906",
"o  c #0C0708",
"O  c #0D0B09",
"+  c #100605",
"@  c #110A06",
"#  c #130C0A",
"$  c #1A0E0D",
"%  c #13100E",
"&  c #1C120E",
"*  c #141311",
"=  c #1B1513",
"-  c #1B1816",
";  c #1F1E1C",
":  c #22110E",
">  c #28120F",
",  c #26190F",
"<  c #241412",
"1  c #2B1614",
"2  c #251A14",
"3  c #2C1914",
"4  c #221C1A",
"5  c #2C1A18",
"6  c #341714",
"7  c #321A16",
"8  c #3A1C15",
"9  c #301718",
"0  c #341B1A",
"q  c #3A1D19",
"w  c #23211E",
"e  c #2A261D",
"r  c #3E2117",
"t  c #35241B",
"y  c #3D221B",
"u  c #35291E",
"i  c #3A281D",
"p  c #252422",
"a  c #3E2420",
"s  c #322B22",
"d  c #3A2C24",
"f  c #431E17",
"g  c #441E19",
"h  c #481F18",
"j  c #44211B",
"k  c #4A231C",
"l  c #40281E",
"z  c #4B281F",
"x  c #51261E",
"c  c #52281F",
"v  c #5F2F1F",
"b  c #602C1F",
"n  c #452320",
"m  c #4C2620",
"M  c #492D22",
"N  c #512720",
"B  c #532A22",
"V  c #5B2D22",
"C  c #433326",
"Z  c #4E3122",
"A  c #46362A",
"S  c #4D3C2C",
"D  c #543025",
"F  c #5B3124",
"G  c #553E2F",
"H  c #5C3928",
"J  c #4D3F32",
"K  c #503E30",
"L  c #622E21",
"P  c #633325",
"I  c #6A3725",
"U  c #65362A",
"Y  c #683729",
"T  c #6A392B",
"R  c #723C2B",
"E  c #703E30",
"W  c #564131",
"Q  c #5C4635",
"!  c #564639",
"~  c #5C4A3D",
"^  c #604B3A",
"/  c #764332",
"(  c #794635",
")  c #754939",
"_  c #7B4D3A",
"`  c #675040",
"'  c #6B5747",
"]  c #69574A",
"[  c #735C4A",
"{  c #726256",
"}  c #786558",
"|  c #7E6959",
" . c #804F3F",
".. c #84503F",
"X. c #865241",
"o. c #895644",
"O. c #8A5843",
"+. c #8E5C4B",
"@. c #955E4C",
"#. c #93624F",
"$. c #98614E",
"%. c #806A5C",
"&. c #966552",
"*. c #996653",
"=. c #9C6955",
"-. c #9C6A58",
";. c #947A67",
":. c #9A7F6A",
">. c #A27461",
",. c #AA7761",
"<. c #A67864",
"1. c #A97967",
"2. c #AD7D6B",
"3. c #96816F",
"4. c #9C8875",
"5. c #AD826E",
"6. c #A28A77",
"7. c #A98F7C",
"8. c #B58572",
"9. c #B58975",
"0. c #B88A75",
"q. c #BB8B78",
"w. c #AE927F",
"e. c #B4957F",
"r. c #C3947D",
"t. c #A08F83",
"y. c #AB9787",
"u. c #BC9582",
"i. c #B69984",
"p. c #B19C8A",
"a. c #BFAA99",
"s. c #C09380",
"d. c #C39E87",
"f. c #C6A594",
"g. c #CCA490",
"h. c #CCAA94",
"j. c #C0AB9A",
"k. c #CBAE99",
"l. c #D2AE97",
"z. c #D2AD9A",
"x. c #CEB39F",
"c. c #D6B09B",
"v. c #DBB39D",
"b. c #CDB8A5",
"n. c #CFB9A9",
"m. c #D0B5A4",
"M. c #DCB6A1",
"N. c #DCBBA4",
"B. c #DFBFAD",
"V. c #E0B5A0",
"C. c #E1BBA5",
"Z. c #E0BFAD",
"A. c #DEC3AE",
"S. c #DFC7B9",
"D. c #DFCDBB",
"F. c #E2C2AC",
"G. c #E4C6B0",
"H. c #EAC7B1",
"J. c #E6C9B4",
"K. c #E9CAB5",
"L. c #E3CEBE",
"P. c #EACDBC",
"I. c #EDD1BC",
"U. c #ECD6C6",
"Y. c #ECD8C5",
"T. c #EFDDCD",
"R. c #F0D6C4",
/* pixels */
"  . %                                           X X       X       O                             ",
"  ; O                           X   X * X     . X                                               ",
"  X                       X O O O     O                   X   X       X                         ",
"                X             O % X O   . .   .     O X X X   X X   X                           ",
"    *                   .   . X X X . . . . . . . . . . X .       X                             ",
"    X                           % - O o o o . . . . # . .     X   O X                           ",
"                    O O   X X X O * * O o @ X X % & - . . . X X O     X                     *   ",
"                    * w X % - # O % X O O # $ $ # 2 e # % % X X % X X ; O     O             %   ",
"  X             .   X O o o X X o # # $ $ $ : 1 < $ 2 < 4 = # # * * o X                     X   ",
"                * O O   o o o X # # # : 1 1 3 9 3 1 1 : 2 & $ # # @ X o         X X             ",
"                O * O   O # X # = $ < 3 q g j k k h j r 6 1 & $ @ # @ X X O X   p     X         ",
"              X X O   O @ O @ # $ < 9 j B F I R T I v c m a 1 $ @ e - o o O X X % X             ",
"                    X % X @ # $ > 6 g V  .>.0.r.r.8.=.( V B r < $ % # X   O X                   ",
"                  X @ X X @ & : 6 g L @.g.P.I.F.F.P.I.c.-.R F q : $ @ X X O X     O     O       ",
"          .       . X @ = $ $ 6 h L @.v.G.e.[ W W [ y.Y.I.5./ m 7 2 @ X X = % X O p *   X       ",
"          . X . X * O X # $ < q P *.V.h.^ , .     X 2 ] n.U.2.U j t , # O % O     O O   X   O   ",
"X           X X   # % # & 2 6 k X.c.k.G .             . G b.K.&.D y a $ O o O .     X   * O O   ",
"O                 X X @ 2 i 8 F 8.N.^ +                 . ~ L.m.) j 0 = X o X X   X X X   * %   ",
"      O - X     . . . @ S i j _ v.;.$                     # 3.T.:.B 0 < # @ - O     X X   % O   ",
"      X w %     . . . & W q c <.N.C                         A D.f.T q < = = O X O       * O     ",
"        O %   X . X @ 2 7 8 U g.p.&                         % p.S. .g < & = X X O     O X       ",
"        O ;     . X % : 1 8 / M.| o                         . | U.o.h 1 $ X X X                 ",
"              . . . @ $ 1 h X.v.~                             Q J.$.k 9 & @ X       O           ",
"                  . @ $ 3 k @.c.A                             C Z.>.N 0 < @ O X % O             ",
"                o . @ $ 5 N &.z.d                             d A.2.N 6 < @ X o O     X         ",
"                  o $ $ 0 N -.M.A                             d A.1.B 9 < # o o X X             ",
"          X   X O o @ & 0 m #.B.!                             S G.-.x 3 < $ o     X             ",
"  X   X     X X % o o $ 5 j X.B.{                           . ] J.+.k 1 $ # o                   ",
"      * %   - O o . @ # < g E z.t.#                         X :.C.( k 1 % O O O       % %       ",
"      X     * O . o o # < 0 V 8.b.s                         t k.e.P D 2 % O     X     % O       ",
"      X   O ; O o o @ = $ 9 k o.Z.} .                     . [ H.-.F Q < @ 2 %   O     O         ",
"    X *           . # s % 1 q P r.k.C                   . s x.l.( H A $ @ ; *         X .       ",
"  O O X         % O . @ # : i c X.v.7.5 .               2 6.H.=.v M 2 # O O =     X             ",
"  X X       O   % O . O & & d z L =.F.6.u X         o e 4.I.q.T j 3 $ @ o # - o   O O           ",
"      O O     X   . X O # # 5 y k P 2.H.j.' t , , u ' a.R.u./ k 0 < $ # X o o                   ",
"      O       O O O   X @ # # 5 6 h I >.C.C.d.e.i.x.U.P.0./ x 8 1 $ # = O     O                 ",
"O   O       X   % w   . o o @ & > 6 k P O.,.r.V.C.z.u.&.T N q 1 $ @ X O O         O             ",
"%         O     O *   . o . @ # $ > 6 j c b R X.o.( Y V h q 1 : # 4 @ o . # .       O *         ",
"          O     .       . o o # & & , 7 j z x B B k j q 9 1 & $ # # O o . ;                     ",
"O             X O   . . . o . # - % , 1 1 9 9 8 q 9 3 1 < $ # @ @ @ O O   .       O           o ",
"X   X   X o   X .   X   * *   o @ @ @ < < : : : < < : : $ # O O X   O           O ;             ",
"O O     X X   X .       O O   . . o @ @ @ # $ $ @ + $ + # O O o O O         X                   ",
"X       X     o X         . . . X . . @ + + @ @ + + o + o . o . . O   O O     O                 ",
"O O O O     X       .   X   X O & o . . + o o . o @ . . . .       O O *       .                 ",
"% O O O o       O O   O           X X X o @ X # o o @ O o X       O O O .                       ",
"* O O o   X     O %       X O     X . X @ X X = @ o o o o o X       O O       .                 ",
"* * p * *     O O         O %     . . @ X . X . o . o O O   O       * *       . .   .           ",
"- * - * O     O *         X O X . # @ . . X X o   . X p %     o O O X       . . . o .           "
};
