/* XPM */
static char *Cannabis[] = {
/* columns rows colors chars-per-pixel */
"48 48 246 2 ",
"   c #010202",
".  c #0B0906",
"X  c #040409",
"o  c #0B0B0B",
"O  c #090609",
"+  c #100E0C",
"@  c #0F110C",
"#  c #14130D",
"$  c #1A180C",
"%  c #151411",
"&  c #1C1C12",
"*  c #191919",
"=  c #181618",
"-  c #0C0C10",
";  c #201B0D",
":  c #1A2214",
">  c #19220F",
",  c #29230D",
"<  c #262818",
"1  c #342E15",
"2  c #2D371E",
"3  c #383518",
"4  c #31290E",
"5  c #262526",
"6  c #2C2C29",
"7  c #2E3922",
"8  c #373623",
"9  c #323232",
"0  c #373435",
"q  c #2F2F31",
"w  c #413A16",
"e  c #403D23",
"r  c #34481D",
"t  c #2D411E",
"y  c #077C0A",
"u  c #0E7C14",
"i  c #2A7115",
"p  c #374825",
"a  c #3C5A29",
"s  c #1F7F27",
"d  c #367028",
"f  c #4A4417",
"g  c #534B17",
"h  c #5B561A",
"j  c #635D1C",
"k  c #655615",
"l  c #6A621A",
"z  c #736A1E",
"x  c #7C751B",
"c  c #474625",
"v  c #495529",
"b  c #595B33",
"n  c #4F522C",
"m  c #635A2B",
"M  c #47682A",
"N  c #45752D",
"B  c #5C7C2C",
"V  c #4A6732",
"C  c #4A7735",
"Z  c #5E7B32",
"A  c #586835",
"S  c #6B6424",
"D  c #7B7425",
"F  c #666837",
"G  c #627935",
"H  c #776E28",
"J  c #53534B",
"K  c #4F4F4E",
"L  c #5E6E4A",
"P  c #6C714C",
"I  c #6E716F",
"U  c #887C1C",
"Y  c #836E1A",
"T  c #857B27",
"R  c #877F38",
"E  c #887E48",
"W  c #06840D",
"Q  c #09820D",
"!  c #068E15",
"~  c #0A8A14",
"^  c #0B8C19",
"/  c #0A8612",
"(  c #158418",
")  c #158C1C",
"_  c #198C1C",
"`  c #128415",
"'  c #07941C",
"]  c #0A931B",
"[  c #09981F",
"{  c #18941E",
"}  c #13870F",
"|  c #379617",
" . c #2C9217",
".. c #3EA21E",
"X. c #0B9622",
"o. c #0B9A24",
"O. c #0D9C2C",
"+. c #0B9728",
"@. c #139422",
"#. c #1B9424",
"$. c #139A25",
"%. c #1B9925",
"&. c #1D9629",
"*. c #159B2A",
"=. c #1C9B2C",
"-. c #139429",
";. c #1C9D33",
":. c #179F30",
">. c #108F26",
",. c #238426",
"<. c #378B2C",
"1. c #219525",
"2. c #229C2C",
"3. c #2B9927",
"4. c #239E32",
"5. c #289934",
"6. c #399D37",
"7. c #2F902F",
"8. c #19A12D",
"9. c #1DA233",
"0. c #1BA539",
"q. c #0EA02D",
"w. c #22A12D",
"e. c #28A12E",
"r. c #39A52C",
"t. c #24A434",
"y. c #2BA333",
"u. c #23A53A",
"i. c #25AA3D",
"p. c #29AB3D",
"a. c #27A836",
"s. c #34A533",
"d. c #35A93A",
"f. c #36B23D",
"g. c #2BB03F",
"h. c #57A61C",
"j. c #68AB1E",
"k. c #79AD19",
"l. c #45962B",
"z. c #4A9634",
"x. c #569838",
"c. c #4D8834",
"v. c #688836",
"b. c #6A9737",
"n. c #6D8836",
"m. c #48AA29",
"M. c #47B336",
"N. c #51AE31",
"B. c #74BB29",
"V. c #68B42F",
"C. c #6C9615",
"Z. c #77C32E",
"A. c #26AB42",
"S. c #2AAD42",
"D. c #2CB145",
"F. c #2AB349",
"G. c #29B447",
"H. c #33B345",
"J. c #36B348",
"K. c #4B8E42",
"L. c #4D9942",
"P. c #6D8650",
"I. c #4DAA43",
"U. c #6AA442",
"Y. c #729169",
"T. c #70A26E",
"R. c #97891C",
"E. c #978E1B",
"W. c #A8981A",
"Q. c #AA9419",
"!. c #91B517",
"~. c #BAA81A",
"^. c #A5BC19",
"/. c #B3A61A",
"(. c #8D8825",
"). c #968A23",
"_. c #988B37",
"`. c #938A3A",
"'. c #A89D3D",
"]. c #A89C22",
"[. c #95A630",
"{. c #ACA126",
"}. c #B5AC2A",
"|. c #C29F18",
" X c #C7AC15",
".X c #CAB518",
"XX c #D5BA16",
"oX c #DDB208",
"OX c #EABC06",
"+X c #E4BC0A",
"@X c #E4B908",
"#X c #E3BA11",
"$X c #CAB823",
"%X c #D5BD20",
"&X c #B7CA19",
"*X c #B9D21D",
"=X c #87C328",
"-X c #9AC927",
";X c #A6C823",
":X c #B6D725",
">X c #C5C717",
",X c #D4C31A",
"<X c #DBC815",
"1X c #CAD719",
"2X c #D9D617",
"3X c #DFD30F",
"4X c #EBC405",
"5X c #EEC906",
"6X c #EBC509",
"7X c #EECB0A",
"8X c #E5CB0F",
"9X c #F2CD05",
"0X c #F2CC09",
"qX c #F0C706",
"wX c #EDD30A",
"eX c #F5D405",
"rX c #F6DA05",
"tX c #FADC05",
"yX c #F4D30A",
"uX c #F5DB0B",
"iX c #F9DC09",
"pX c #F8D606",
"aX c #E3CB14",
"sX c #EACD13",
"dX c #E5CA17",
"fX c #E9D615",
"gX c #F4DD11",
"hX c #F7DA11",
"jX c #FCE305",
"kX c #FCE905",
"lX c #F6E20C",
"zX c #FBE209",
"xX c #F9E90A",
"cX c #F5E311",
"vX c #EAE210",
"bX c #CBCB23",
"nX c #968F54",
"mX c #A29D44",
"MX c #8B896C",
"NX c #A09C73",
"BX c #B2AD79",
"VX c #B6AD42",
"CX c #C1BC7B",
"ZX c #C6C17B",
"AX c #848883",
"SX c #AEAF87",
/* pixels */
"/ y ] o.o.X.W y y / ^ W W { ~ Q ^ ( ( ( @.#.#.;.4.-.1.&.#.&.&._ ) -.-.>.>.;.;.;.;.;.;.;.w.8.=.=.",
"i y ^ o.O.o.~ y Q ~ { $.%.%.{ { _ ) #.2.1.#.2.=.a.4.u.u.4.4.&.&.;.4.;.;.;.;.;.A.A.S.A.u.a.u.0.m.",
".XC.} ~ ' ! W W y W ] X.] @.$.=.#.#.=.=.2.2.4.4.a.u.p.u.4.4.;.-.;.u.A.5.;.0.A.S.F.S.S.p.i.f.Z.3X",
"OXOX!.| ! ~ W W W / ] ] X.$.*.*.#.@.#.#.2.2.2.2.s.u.u.u.A.A.;.;.A.A.S.S.A.A.A.S.H.S.H.D.N.;XlXjX",
"OX4X5X>Xh./ ! ~ ^ ' ] X.X.X.*.=.*.%.#.2.w.=.t.y.x.u.4.4.u.4.A.;.A.A.A.p.A.A.A.S.S.F.F.Z.1XcXjXkX",
"OX4XqX9X3Xk.{ O.O.o.+.@.*.9.=.;.t.a.t.t.t.8.w.6.z.5.0.u.;.A.A.A.u.A.A.A.u.i.p.S.D.f.-XvXxXlXjXjX",
"@XOX9XeXeXwX^.r.q.q.O.*.:.0.u.u.S.S.p.a.p.p.u.6.C H.u.u.A.S.A.A.u.4.u.u.9.S.D.A.N.*XcXtXrXtXjXjX",
"@XOXqXeXeX9X5X<Xh.@.o.8.0.A.D.D.D.S.p.D.S.p.i.s.V S.A.5.A.S.S.S.S.u.A.p.A.F.H.Z.1XjXjXtXtXtXjXtX",
"@XOXOX9X9XeX9X9XfX!.3.q.i.G.G.S.S.S.S.t.t.u.t.7.M 5.i.i.0.S.S.S.A.u.p.u.A.f.-XfXtXjXjXjXkXjXkXzX",
"@XOX9X9X9X9XeX9XeX0X&XN.G.G.D.F.D.D.S.9.9.u.=.<.r 5.;.p.A.A.A.A.A.4.A.u.N.>XgXtXtXtXjXjXjXkXkXjX",
"@XqX9XpXeXeXpXpXeXrXtX3X=XH.G.G.p.p.p.u.u.;.;.<.r 6.u.A.A.A.p.A.u.0.s.B.<XtXrXrXtXtXjXjXjXjXzXzX",
" X6X0X0X4X9XpXtXrXwXpXpXvX;XM.A.S.S.S.S.S.p.i.d < d.p.0.p.S.S.u.;.m.;XfX5XrXtXrXtXtXtXtXtXtXiX%X",
", U sX9XqX0XqXpXpXeXeXyXfXbX1XV.D.g.i.p.i.S.H.d & S.i.A.A.S.A.S.V.>X.XaXeXtXpXpXtXtXpXeX6XsXE., ",
"O + k  X6X9X0XiXiXpXwXtXuXR.3XfX=XH.p.i.S.D.I.t # z.G.G.A.F.I.!.fXaXE.fX0XpXtXtXtXtXtX5XXXk +   ",
"  X O 1 Q.0XpXpXrXpXeXuXiXE./.zXvX;XM.i.A.g.d.: o K.F.F.G.M.:XvXxX/.W.zXyXpXtXtXtXuXlX/.3 X     ",
"        ; T dXyXpXrXrXpXuX~.x lXzXjX1XZ.d.p.I.< o K.J.H.Z.2XzXxXlXx ~.tXzXtXpXjXjXfXR.;         ",
"          . h $X0X9XpXiXpX.Xg aXjXrXtXfX-XM.c.%   a I.-XxXxXjXxXaXg >XtXtXjXzXzX,Xh .           ",
"            X 4 Q.dX0X0XqXXXw /.rXwXwXrXvX1Xb.- X v.:XxXxXkXjXkX/.w 8XjXtXjXzX{.1 X             ",
"                % l XX0XqX7Xf j wXrXrXrXjXcX(.@ X h vXxXkXkXjXuXj f gXjXjXfXx #                 ",
"                X O w ~.yXsXw = ,XrXrXjXkXkXn.X   h xXxXkXkXkX<X; f gXxX.Xg                     ",
"                      , R.dXj - R.lXzXxXxXlXD - X h fXjXkXjXzXR.O j fXE.,                       ",
"                      X + j g X r fXiXpXtXgXl     3 dXtXtXpX8Xr   n S #     X                   ",
"                + o     O O 3 o + W.zXiXpXuXz X   2 <XiXuXzXW.# O 8 .       + #                 ",
"                $ 3 O O   O < O   j dXpXpXsXz X   1 aXtXtXaXl   o < X     O 3 ;                 ",
"                . 3 ,     X < & X @ {.uXjXuX(.X   < XXtXuX{.#   & <       < 3 O                 ",
"                  $ 8 %   X f 1 X X g aXrXpXD o   1 aXtX8Xg X X 3 f X X % 8 $                   ",
"                    < 1 ; l ,XH X   & ~.pXyXD O   < XXiX~.&   X z ,Xk & 1 < O X                 ",
"                  X % < H fXhXT - X X z gXpXU X   1 <XgXz X X o ).hXfXD < %                     ",
"                  X g S 1 $XyX~.:   X 3 <XhX).o   w aX<Xc * = 6 '.XXW.3 c 1 % = = = = % = * * * ",
"                % z XX.X* f ,XsXS .   $ ~.iX).-   f wX/.8 9 0 P mXR 3 < m T b 9 q 9 9 6 6 q 9 9 ",
"              4 Q.dX6XfXj X S dX].%     D &Xv.o   v bXH 5 I AXSXBXE K P nXnX`.`.c q q 6 5 5 9 9 ",
"        X O g  X6X6X7XiX{.# # E.<Xh     2 x.c.+   a b.< 5 AXSXZXSXK K MXnXE _.}._.b 6 5 5 < q 9 ",
"        ; Y XX6X6XqX5XpXdXg   < /.}.<   @ c.L.5 . V x.% 5 J nXnXJ 9 9 S S S `.'.}.mXF 8 5 5 q 9 ",
"      1 R.#XqXqXqX6X4XeXpX{.&   f }.v . X a L.: o L V   5 MXCXSXI Y.MXMXMXNXBXCXCXZXSXNXMXAXJ 9 ",
"X o k |.oX+X4X4X6X4XqX9XpXfXT + O p b.2 X 5 U.p % n.<   t P.J K 0 F T n j T _.'.mXmX_.`.E b 0 0 ",
", U oX@X+X6X4X+X4X6XeXeX9XyX^.c X + M v.: - v.a 2 P o & P.b * * n {.|.Q./.~..XXXdXXXXX.X X X_.e ",
"~.@X+X+X@X+X+X+X6X5XeX5XsX!.| x.2   # Z Z # a A v v % B v.@   7 L.N.;XsXgXiXkXkXkXjXjXjXtXtXpX.X",
"#XOX+X@XoX@X+X+X5X5XrX<Xk.( ~ #.z.p X : v.v.r G Z t B b.:   7 L.f.p.a.=X2XlXkXkXjXjXjXtXtXpX9XqX",
"@XOXqXOXOX6X7X7X7XrX&Xm.{ ) #.=.r.x.M < < B n.n n n.Z : & M U.M.f.s.y.p.N.*XxXzXjXjXtXtXtXeX0X4X",
"oX@XqXqX5X7X9X9X<X!. .] 3.l.c.M a M G F b A L e c A b b F P N M N c.x.d.w.r.-XgXtXjXtXtXtXeXqX4X",
"oX@XOX0X6X5XyX>Xh.%.X.' w.6.l.M r : @ O % 7 V x.v.M 2 $ o # : p N z.z.r.=.0.a.B.2XzXjXrXeXeX5X4X",
"OX4X6X0X0X7X^.| ^ [ o.+.q.q.8.t.d.z.c.C N z.M.m.l.r.z.C C C x.M.d.t.t.y.t.a.p.i.m.*XuXrXeXeX5XOX",
"6X4X0XqX<Xk. .W ~ ] ' o.o.' O.q.0.q.e.s.5.w.0.l.l.=.3.y.d.s.y.i.S.p.t.a.t.t.S.i.u.r.=X3XyXeX9X4X",
"5X9X9X&Xh.$.X.' ] ~ ] ' ! ! O.0.0.*.#.8.u.w.8.l.l.2.2.a.a.a.p.p.p.p.a.a.t.t.a.=.a.0.e.V.>XeX5X4X",
"0XaX!. .X.o.o.o.o.[ [ ' [ o.o.o.8.8.8.8.w.%.e.3.3.#.#.2.y.t.u.t.t.a.t.w.=.2.2.=.t.w.%.@...;X8X@X",
"$X[.<.,.5.-.] ] [ [ ] ] o.q.o.[ *.w.w.e.2.2.2.{ ) _ ) ) 2.2.2.w.t.a.a.w.&.&.=.%.=.=.@.@.*.{ k. X",
"P T.T.T.T.,.! ~ ! ! Q ~ [ [ [ $.=.w.2.y.y.y.2.{ _ _ 1.1.3.1.1.%.2.t.t.%._ _ @.@.{ X.>.] $.] / | ",
"i s s ,.,.u Q W W Q Q Q ! ! [ [ $.%.#.#.1.1.%._ _ _ ) _ _ _ _ ` 1.&.2.#.( u ( ` ( ~ ^ ] { ` / y "
};
