/* XPM */
static char *Jul[] = {
/* columns rows colors chars-per-pixel */
"48 48 222 2 ",
"   c #030306",
".  c #03040B",
"X  c #06090E",
"o  c #0A0B0D",
"O  c #0C110F",
"+  c #030512",
"@  c #050A13",
"#  c #0A0D13",
"$  c #060B1A",
"%  c #0A0D1B",
"&  c #0C121B",
"*  c #0C1114",
"=  c #121316",
"-  c #10131A",
";  c #171C19",
":  c #0B0B21",
">  c #110D2C",
",  c #0B1423",
"<  c #0D192B",
"1  c #071526",
"2  c #121621",
"3  c #131923",
"4  c #131B2C",
"5  c #161A27",
"6  c #0D183A",
"7  c #181439",
"8  c #1B242B",
"9  c #0D2335",
"0  c #0E243A",
"q  c #15293F",
"w  c #172537",
"e  c #22292C",
"r  c #232B33",
"t  c #222C3C",
"y  c #292E38",
"u  c #293436",
"i  c #323C3B",
"p  c #303C35",
"a  c #36463C",
"s  c #1B1544",
"d  c #1F1A47",
"f  c #0E1D5F",
"g  c #16184B",
"h  c #221B4C",
"j  c #251D53",
"k  c #2A1D5B",
"l  c #182D43",
"z  c #163249",
"x  c #1C354B",
"c  c #183549",
"v  c #153B55",
"b  c #1F3953",
"n  c #1D395A",
"m  c #1B2C54",
"M  c #28204F",
"N  c #293646",
"B  c #2A3A4E",
"V  c #263847",
"C  c #313A44",
"Z  c #323E4D",
"A  c #29265B",
"S  c #223C55",
"D  c #223B57",
"F  c #31295B",
"G  c #01156D",
"H  c #0C1C68",
"J  c #011674",
"K  c #011778",
"L  c #01197C",
"P  c #061B79",
"I  c #111D75",
"U  c #121D67",
"Y  c #0D227C",
"T  c #2D2163",
"R  c #2F256B",
"E  c #322768",
"W  c #3B2B75",
"Q  c #3A277A",
"!  c #30337B",
"~  c #2A316F",
"^  c #1A475F",
"/  c #2F444E",
"(  c #3D464A",
")  c #2A4358",
"_  c #314158",
"`  c #374252",
"'  c #3D5054",
"]  c #1B4763",
"[  c #224C6A",
"{  c #264966",
"}  c #344A63",
"|  c #25506C",
" . c #3B546C",
".. c #3A586D",
"X. c #2B4674",
"o. c #2A5671",
"O. c #265878",
"+. c #325C7C",
"@. c #3A5C7C",
"#. c #385573",
"$. c #2C617E",
"%. c #46555C",
"&. c #52654E",
"*. c #49456E",
"=. c #465668",
"-. c #524F7C",
";. c #425679",
":. c #45607E",
">. c #5B6573",
",. c #657864",
"<. c #021A84",
"1. c #051C8C",
"2. c #091E8E",
"3. c #0C1F91",
"4. c #121F93",
"5. c #09208F",
"6. c #0C2092",
"7. c #142095",
"8. c #1A2196",
"9. c #152299",
"0. c #1C2299",
"q. c #1A218D",
"w. c #3A2989",
"e. c #24249D",
"r. c #29259E",
"t. c #2C2C94",
"y. c #352B95",
"u. c #35398E",
"i. c #1E24A0",
"p. c #2625A0",
"a. c #2C26A2",
"s. c #3227A4",
"d. c #3428A6",
"f. c #3B29A6",
"g. c #3729A8",
"h. c #3B2AAA",
"j. c #452C94",
"k. c #4D3796",
"l. c #51339D",
"z. c #442B89",
"x. c #432CAD",
"c. c #492DAD",
"v. c #4A2DA2",
"b. c #4934AC",
"n. c #5435AC",
"m. c #5735A8",
"M. c #462DB0",
"N. c #4B2EB2",
"B. c #522FB4",
"V. c #4E31B4",
"C. c #5331B5",
"Z. c #5B35B6",
"A. c #5732B8",
"S. c #5B34BA",
"D. c #5B38B2",
"F. c #6136BE",
"G. c #6339BE",
"H. c #623AB4",
"J. c #355D82",
"K. c #2D6785",
"L. c #326685",
"P. c #3A6589",
"I. c #3C6C8B",
"U. c #386787",
"Y. c #397A98",
"T. c #386B90",
"R. c #405F81",
"E. c #565A86",
"W. c #4F4191",
"Q. c #525D9D",
"!. c #4C4F8E",
"~. c #456788",
"^. c #556C86",
"/. c #436C91",
"(. c #5C6E9F",
"). c #437494",
"_. c #4A7192",
"`. c #487A9D",
"'. c #557B94",
"]. c #53769C",
"[. c #597899",
"{. c #637691",
"}. c #4F4DA6",
"|. c #5D69A9",
" X c #567AA2",
".X c #6277A6",
"XX c #5F36C0",
"oX c #6336C1",
"OX c #6539C2",
"+X c #693BC5",
"@X c #6A3AC8",
"#X c #5F8999",
"$X c #64859A",
"%X c #6E919D",
"&X c #4D85A6",
"*X c #5C85AC",
"=X c #5C8BAD",
"-X c #5785A6",
";X c #5F8DB2",
":X c #5C92B3",
">X c #638AA5",
",X c #628BAE",
"<X c #6485A6",
"1X c #718FAF",
"2X c #6993AD",
"3X c #799AA6",
"4X c #638DB2",
"5X c #6888B3",
"6X c #6593B4",
"7X c #6A93B5",
"8X c #6594B9",
"9X c #6D95B9",
"0X c #6A9BBE",
"qX c #669ABB",
"wX c #7499BC",
"eX c #7494B7",
"rX c #6D9EC1",
"tX c #749BC2",
"yX c #799BC3",
"uX c #79A3C6",
"iX c #78A2C7",
"pX c #82ACD2",
/* pixels */
"J J J J J J K K L L <.<.<.<.1.1.1.1.1.1.1.1.Y n A H <.1.1.1.1.1.<.<.<.<.<.L K J J G G G G G G G ",
"J J J J K K K L L <.<.<.<.1.1.1.1.1.1.6.5.Y m i 8 6 f <.2.1.1.1.1.<.<.<.<.L K K K G J G G G G G ",
"J J J L L L L L <.<.1.1.1.1.1.2.6.6.6.6.5.6 e 8 = - , H 5.1.1.2.1.1.1.1.<.<.K K K K J G G G G G ",
"J J K L L L L L <.<.1.1.2.2.3.3.6.6.6.6.Y * ; & = * o 6 5.6.5.5.1.1.1.1.<.<.L L K J J J J G J G ",
"L L L L L L L <.1.1.1.1.5.2.2.9.9.9.9.9.Y O ; * # o o 6 4.4.4.3.3.2.1.1.1.<.<.L L K K K J J G J ",
"L L L L <.<.<.<.1.1.1.5.6.6.9.9.9.9.0.9.H & ; * % # O < q.0.8.7.4.4.3.1.1.<.<.<.L L K K J J J J ",
"L L <.L <.<.<.1.1.1.2.3.9.9.0.0.i.i.i.0.X.=...b q w u ( u.4.0.0.4.4.3.3.1.<.<.<.L L L K J J K J ",
"L L <.<.<.<.<.1.2.2.6.9.9.9.0.0.i.i.i.g.$X$X=X>X_...' ,.E.e.e.0.0.4.3.3.1.1.1.<.<.L <.K J K K K ",
"<.<.<.<.<.1.1.1.5.3.9.9.0.e.p.p.p.p.e.}.3X>X7XrX,X:./ &.>.r.r.e.0.4.4.4.4.3.1.<.<.<.<.L L K K K ",
"<.<.<.1.1.1.1.2.3.9.9.0.e.p.p.a.s.a.a.|.3X>X7XrX,X~.) a %.t.a.p.e.e.p.4.3.3.1.1.<.<.L L L L K K ",
"<.<.<.1.1.1.3.3.4.9.0.p.p.a.s.s.s.g.s.|.3X$X6XqX,X~.) p ` t.s.a.p.p.i.0.4.4.3.1.1.<.L L L L K K ",
"1.1.1.1.2.2.3.3.9.0.e.p.a.s.g.g.g.g.s.(.%X>X9XqX8X].} i C y.d.d.a.p.p.0.4.4.3.3.1.<.<.<.L <.L K ",
"1.1.1.1.2.6.4.9.0.e.p.a.d.f.g.h.h.h.h.Q.%X#X=X0XqX).b a a A s.g.s.s.p.p.i.4.4.3.1.1.<.<.<.<.K L ",
"1.1.1.2.2.3.4.4.4.p.a.s.g.g.h.x.x.x.b.|.#X| ] )._.z 0 8 p d h.g.h.s.a.p.i.4.4.4.3.1.1.<.<.<.L L ",
"1.1.2.3.3.4.9.4.p.p.s.d.g.h.x.x.x.c.b..X#XK.[ Y.+.[ ^ V i j x.h.h.s.s.r.p.4.4.4.1.1.<.<.<.<.<.L ",
"1.2.3.4.9.4.0.i.p.s.s.g.x.x.x.x.N.N.c. X2X:X X=X+.U.T.#.u T x.x.h.h.s.a.p.p.4.4.3.1.1.1.<.<.<.<.",
"2.4.4.4.e.4.4.e.a.s.g.h.x.M.N.N.B.B.N.|.6X0XrX6X@.L.`.X.8 W c.x.h.f.d.s.r.i.0.4.4.3.1.1.<.<.<.<.",
"4.4.4.4.4.0.p.p.a.g.g.h.M.N.N.B.B.B.A.|.`.rXrX:X~.} _.n 8 w.N.c.x.x.h.d.r.p.p.4.4.3.1.1.1.<.<.<.",
"4.7.e.0.e.e.p.a.s.g.h.M.N.N.B.B.B.A.A.}.J.;XrX Xo.b L.l 7 v.B.N.M.x.h.g.s.p.p.i.9.3.1.1.1.1.<.<.",
"q.8.4.0.e.r.p.a.g.g.x.M.N.B.B.A.A.A.S.B.J.Y.=XY.] z D 9 j n.B.V.N.N.x.g.d.a.p.4.0.3.3.1.1.1.<.<.",
"4.4.e.e.e.e.a.s.g.h.x.N.B.B.A.S.S.S.S.S.! J.K.O.[ l z 1 T A.C.C.B.N.M.h.g.s.a.0.0.4.3.1.1.1.<.<.",
"8.0.e.e.r.a.s.s.g.h.M.N.B.A.S.S.F.oXF.F.u.] L.L.~ v ) & W S.C.B.B.N.M.x.g.s.a.p.0.9.3.2.1.1.1.1.",
"e.4.e.e.a.a.s.d.g.x.N.N.B.A.S.S.S.F.F.oXk.v U.).| | l % Q S.Z.A.B.B.N.x.h.d.a.r.0.4.4.3.3.1.1.<.",
"8.e.e.r.a.s.d.g.g.x.N.N.B.S.F.F.oXoXoXoXW.x ^ T.T.] q r E H.F.S.A.N.N.M.x.g.s.r.e.9.4.3.3.1.1.1.",
"e.e.a.a.s.s.f.g.h.x.N.B.S.S.F.F.G.G.OXm.E ..) v | 9 Z ^.!.n.XXXXA.B.B.N.x.d.s.a.e.0.7.2.3.1.1.1.",
"e.r.a.y.s.s.g.f.x.N.B.B.S.F.F.G.+X+XG.k ) tX#.1 1 @ B ].~.W D.oXS.S.B.N.c.g.d.s.r.e.7.2.1.3.1.1.",
"e.r.r.r.s.s.g.h.x.N.B.A.S.oXoXOX@X+Xm.> ^.tXR.6 $ . V  X~.4 T m.S.S.B.N.N.h.g.s.r.8.7.6.3.1.1.1.",
"e.r.r.r.s.d.g.x.x.c.B.Z.S.G.G.@X+Xl.7 : '.5X_.~.] 9 B 4X].8 . s Q n.A.B.N.h.g.d.r.e.7.7.6.6.1.1.",
"r.r.s.s.d.g.h.x.c.N.B.S.F.G.@XH.W > + 5 <XwX .D $.^ N 6X-XV   + : s Q N.V.x.h.d.r.e.q.7.7.2.2.1.",
"r.r.a.s.g.f.h.x.c.B.A.S.F.+XD.h + + . r eXtX} + & @ y 7X=X/ . + + . $ h y.x.h.d.r.r.8.7.7.3.2.1.",
"r.r.s.s.f.h.h.x.c.B.Z.F.G.j.7 $   . . N eX0X) @ X . t ,X*X}   . 5 r X . 7 w.x.f.s.e.0.8.4.2.2.1.",
"r.a.s.g.h.x.h.c.B.B.Z.F.l.> . % t 2 . Z eX9X .) & & ^.1X*X .  y 1X[.- . . h x.g.s.r.0.7.7.4.2.1.",
"r.s.s.d.h.h.x.M.N.B.Z.D.h + + C eX^.- Z yX9X;.'.B =.1X9X4X:.% {.[.N + .   % w.h.g.p.0.8.7.4.2.2.",
"r.s.s.d.h.x.x.N.B.B.F.j.# . + 2 D ].} =.yX9X_.-X[.wXuXuXrX:.t <XD . . .   o R h.g.a.e.0.7.4.2.2.",
"a.s.d.f.h.x.x.N.N.A.S.-.$ . + . $ @.*XwXpXyX.X=X4XuXpXuX8X..l ~., . . .     A h.g.a.p.0.8.4.3.2.",
"a.s.d.f.h.x.x.c.B.A.Z.E.2 . + + . V wXtXtXtX8X5X,XpXpX9X@.c q ) + . . . .   j h.g.a.e.0.8.4.3.2.",
"s.s.d.f.x.x.M.N.B.S.Z.*.e . + + . , ].=X X*X*X*X].iX:XI.D q 6 4 .         X F x.f.s.e.8.8.4.4.2.",
"a.s.g.f.h.x.x.N.B.S.Z.*.y . + + + + x /.T.P.P.L.L.&XY.o.S w 4 +           X A x.f.r.e.e.0.7.6.5.",
"s.s.d.g.x.x.M.N.B.S.S.-.C + . + + . , } P.P.O.O.] Y.Y.o.S w # .           @ A x.h.s.r.e.e.7.7.5.",
"a.s.f.g.h.x.M.N.B.A.S.F ( % + . . . . , ) @.[ v 0 O.K.| x & . .           & R N.h.s.r.e.0.7.7.5.",
"p.s.d.h.h.x.M.N.C.S.oXk r 8 X + . . + @ $ < , @ @ 1 q 9 % .               w R M.g.s.e.e.4.4.4.2.",
"a.s.d.g.h.x.N.N.C.S.oXR 3 ( # . @ . + + + .   . + X X .       .         - 3 w.x.h.s.e.e.e.q.4.2.",
"a.s.s.g.h.M.N.N.V.C.G.z.% i y # + + @ @ + + + . X X . + . .     o       - 4 j.c.g.s.e.e.0.7.4.4.",
"p.a.s.g.h.M.M.N.B.Z.oXl.% e >.2 @ @ + + + + . . + + + . .     .   o . . 3 d c.x.h.s.e.e.0.4.q.2.",
"p.a.d.d.h.x.x.N.B.S.oXH.7 5 %.= o o . + . .   . + + . . .           o o 3 E C.x.g.s.e.e.0.7.4.2.",
"e.s.s.g.g.x.x.N.C.S.F.G.T + ( y . . . . . . . . . + . .   .           O 7 j.N.x.h.a.p.e.8.4.4.2.",
"i.a.s.s.g.x.x.N.B.S.F.+Xl.: 5 y . . . . . . . . . . . .       .       = k A.B.x.h.s.e.e.0.4.3.2.",
"i.p.a.d.g.h.x.N.B.S.F.@XG.j o r .   . . . .   . . . . . . .   .     o 5 j.A.B.M.g.s.e.e.8.4.4.2."
};
