/* XPM */
static char *Sunset[] = {
/* columns rows colors chars-per-pixel */
"48 48 254 2 ",
"   c #0D0E1B",
".  c #140E18",
"X  c #13111B",
"o  c #1C121A",
"O  c #181217",
"+  c #0E101C",
"@  c #23141C",
"#  c #281218",
"$  c #36141B",
"%  c #350D15",
"&  c #0E1223",
"*  c #1C1422",
"=  c #191728",
"-  c #181C34",
";  c #271728",
":  c #361B28",
">  c #261D33",
",  c #391F33",
"<  c #1D223B",
"1  c #37212B",
"2  c #282436",
"3  c #392738",
"4  c #342E37",
"5  c #45161C",
"6  c #440F16",
"7  c #471C28",
"8  c #451F33",
"9  c #571A24",
"0  c #56242A",
"q  c #422135",
"w  c #4B2339",
"e  c #472639",
"r  c #55223A",
"t  c #5B243B",
"y  c #5A293A",
"u  c #4F2933",
"i  c #65253B",
"p  c #773137",
"a  c #631F29",
"s  c #182A49",
"d  c #1C3556",
"f  c #282A48",
"g  c #382A46",
"h  c #2A3658",
"j  c #373657",
"k  c #312D4F",
"l  c #1B3A71",
"z  c #373667",
"x  c #293D78",
"c  c #323B6F",
"v  c #1D1F41",
"b  c #492B44",
"n  c #582C44",
"m  c #473448",
"M  c #56354B",
"N  c #453758",
"B  c #583954",
"V  c #4E2C57",
"C  c #682B44",
"Z  c #773649",
"A  c #663756",
"S  c #763854",
"D  c #6A2E4C",
"F  c #443A67",
"G  c #553A66",
"H  c #483B76",
"J  c #573166",
"K  c #673A67",
"L  c #773567",
"P  c #653B79",
"I  c #773A7A",
"U  c #1C4A70",
"Y  c #234977",
"T  c #304C74",
"R  c #5C455E",
"E  c #744458",
"W  c #49426A",
"Q  c #564468",
"!  c #484679",
"~  c #594877",
"^  c #59537A",
"/  c #664768",
"(  c #7A4767",
")  c #674A77",
"_  c #6E5078",
"`  c #7C617A",
"'  c #8F353E",
"]  c #863A55",
"[  c #933657",
"{  c #90304D",
"}  c #B83355",
"|  c #AE3050",
" . c #8A3667",
".. c #9B3866",
"X. c #8C3A75",
"o. c #A63866",
"O. c #B93965",
"+. c #AA3B74",
"@. c #CD3554",
"#. c #E8354D",
"$. c #F23A49",
"%. c #E93B59",
"&. c #C53B68",
"*. c #CF3D6E",
"=. c #E63D63",
"-. c #994759",
";. c #8D434E",
":. c #A84B58",
">. c #B0504F",
",. c #964769",
"<. c #8A496E",
"1. c #A7476A",
"2. c #B9456E",
"3. c #AA4875",
"4. c #B75778",
"5. c #B2536D",
"6. c #B4627A",
"7. c #A5616A",
"8. c #CB5057",
"9. c #EA455A",
"0. c #F24A52",
"q. c #F45A57",
"w. c #F0504E",
"e. c #C96659",
"r. c #F3664E",
"t. c #F56958",
"y. c #F67959",
"u. c #F06E56",
"i. c #C9426C",
"p. c #C65976",
"a. c #D14E73",
"s. c #E6476B",
"d. c #F24961",
"f. c #F35867",
"g. c #E64876",
"h. c #F24F78",
"j. c #F45878",
"k. c #E75872",
"l. c #D96679",
"z. c #D06875",
"x. c #F56B65",
"c. c #F77865",
"v. c #EA6979",
"b. c #F66A75",
"n. c #F77976",
"m. c #E9746D",
"M. c #F48756",
"N. c #F7995B",
"B. c #EF9A53",
"V. c #F4A85A",
"C. c #F7B65E",
"Z. c #F88766",
"A. c #FA9669",
"S. c #F88478",
"D. c #F89976",
"F. c #EB8575",
"G. c #F7A767",
"H. c #F8B569",
"J. c #F8AA75",
"K. c #F8BB77",
"L. c #D5837B",
"P. c #F7C65E",
"I. c #F8C769",
"U. c #F9C774",
"Y. c #F9D879",
"T. c #373E82",
"R. c #793E86",
"E. c #513E85",
"W. c #374585",
"Q. c #2F5189",
"!. c #2D6A92",
"~. c #376E93",
"^. c #326A90",
"/. c #484593",
"(. c #574595",
"). c #514F8C",
"_. c #694788",
"`. c #675785",
"'. c #684798",
"]. c #74479B",
"[. c #785D97",
"{. c #754E8A",
"}. c #4B7097",
"|. c #686896",
" X c #756B90",
".X c #754CA0",
"XX c #4974A3",
"oX c #736CA3",
"OX c #4F59A5",
"+X c #843E83",
"@X c #885788",
"#X c #88489C",
"$X c #904F90",
"%X c #B55489",
"&X c #A54B9C",
"*X c #B74C9B",
"=X c #AD4E8B",
"-X c #856484",
";X c #876499",
":X c #956E93",
">X c #A66687",
",X c #B37790",
"<X c #894AA0",
"1X c #974CA0",
"2X c #AE50A1",
"3X c #8868A4",
"4X c #946AA6",
"5X c #A868A6",
"6X c #D94884",
"7X c #C45687",
"8X c #C84E98",
"9X c #C65399",
"0X c #D75699",
"qX c #D0518A",
"wX c #E44C85",
"eX c #EC5389",
"rX c #F35988",
"tX c #E65A98",
"yX c #F15D93",
"uX c #CA758A",
"iX c #D56D8B",
"pX c #F96A88",
"aX c #F97888",
"sX c #EB6299",
"dX c #F66895",
"fX c #FB7991",
"gX c #E76F87",
"hX c #C855A1",
"jX c #4E83A6",
"kX c #7088A6",
"lX c #958499",
"zX c #B78798",
"xX c #8E8FA7",
"cX c #B08FA7",
"vX c #95A5BA",
"bX c #B5A7B4",
"nX c #D69599",
"mX c #D1888F",
"MX c #F98888",
"NX c #F69687",
"BX c #F98792",
"VX c #EF928E",
"CX c #F4A989",
"ZX c #E6A697",
"AX c #F0B492",
"SX c #C995A4",
"DX c #D4ACB2",
"FX c #E5B1AD",
"GX c #F6D089",
"HX c #EED0A7",
"JX c #F8EBAD",
"KX c #F8E396",
"LX c #D7BEC1",
"PX c #DBC4C9",
/* pixels */
"& & = - + + & & v T.Q.Q.Q.T.v > z T././././././././.(.(.(.(.(.(.(.E.E.z z T.T.T.T.T.T.T.x l l l ",
"s s s &   + - < v d Q.T.Q.T.> - z T.OX/./.(./.(.(.(.(.(.(.E.(.(.'.(.E.E.V E.T./.E.T.T.T.x c x l ",
"Y l -   + + < h x k - = v x v = c OX(.(.(.(.'.'.'.].].].].].].].].+XR.R.E.E./.E.(.(.T.T.H H x c ",
"Q.d     + & & f Q.W.s f & - = = H '.'..X.X'..X.X.X].].<X].#X].#X#X+X+X+XR.R.'.R.R.E.E./.H H T.E.",
"Y - + + X = & = W.OX/./.f & * . g F H R..X.X.X<X#X#X#X1X#X1X#X1X1X#X+X+XR.R.R.R.R.R.H k z T.! T ",
"l s = + + > > + h OXOX).z = X . ; > , P <X<X1X1X1X&X&X&X&X&X&X&X*X+X+X+XR.I E.I R.H V V V J W /.",
"h x = X X - k * > OX(.f = * . ; V P +X<X1X1X1X2X&X*X*X*X*X*X*X&X+X+XX.+XJ J V V V J V D P P P H ",
"T l = < > 2 W 2 g H f g k , . * b +X1X2X2X2X2X*X*X*X*X8X*X8X8X*X=Xo.X.X.L L J J J V [ o.+.I +XR.",
"XXT & j 2 > ).j G j N `.G ; . o * V 2X*X2XhXhXhXhXhX8X8X8X8X6X6X+.*.=X .L L L V S ..%X=X=X$X@X{.",
"OXh < ^ f 2 |.~ ~ _.[.;Xg . . ; w > <.hXhXhXhXhX0X0X0XtXwX6X6X6X8X*.+. .L  .L  .+.*X8X%X=X$X$X@X",
"XXh z |.j 3 |.[._.3X3XR.> ; . ;  .n V hXhX0XtXtXtXtXtXwX6XwX6X6XwX6Xo. . .+.o.*.6X0X9X*X%X%X=X@X",
").f ).oXF N oX3X[.4X4XG m * ; ; D =XD hXtXtXtXtXtXwXwXwXeXeXeXwX=.*.&.O.&.*.6XwXtX0XqX6XqX%X=X=X",
"f T |.oX^ _.3X3X4X5X;X_ m ; n M B 9X,.7XsXsXtXsXyXyXyXrXyXeXeXeXeXg.*.wXg.eXeXyXqX3.[ ..3.=X=X=X",
"k  XoXoX[.3X4X;X[.5X$Xm , : E L ,.0X4.qXsXsXsXdXdXyXdXpXeXg.=.wXrXwX*.&.O.&.s.s.&.} &...1.1.2.7X",
"|.oX3X3X3X3X[.~ G 5X$Xg . ; b <.4.iX3.7XdXdXdXdXdXrXrXrXrX=.wXh.g.@.@.&.&.s.j.h.g.eXeXO.3.o.7X7X",
"W `.[.4X4X3X/ g V _ A b * ; n 1.0X0XZ 5.fXdXdXpXfXdXpXpXrXyXrXh.=.#.=.=.h.j.pXpXrXl.g.g.g.6XqX7X",
"W {.;X4X;X/ m = ; <.%Xe o ; n [ tX4.7 E 5.gXfXfXfXfXfXfXaXaXpXb.b.f.j.b.pXpXpXh.i.2.a.yXgX7X+.o.",
"[.;X;X{.) N N = > / S ; # ; ] iX1.y % 9 :.aXfXfXfXfXfXBXaXaXaXaXaXaXaXfXfXfXj.@.{ [ [ 1.o.S Z Z ",
"Q ;X4X_ g - 2 X , S w Z ; 7 y l.:.7 % 5 ;.z.MXMXBXBXBXBXBXNXMXaXMXb.b.n.b.b.0.@.| { { { { { { } ",
"3 / 4X<.g * * * ; S ,.-.8 y ] p.5.7 $ 5 { >.n.MXMXMXMXVXBXBXNXNXS.c.r.q.0.0.$.#.@.@.| | | @.@.s.",
"# : ( ( 3 ; ; o ; y iX-.] C p.:.-.0 % 6 >.S.MXMXS.MXMXNXNXNXCXCXD.Z.c.u.0.$.$.$.#.#.$.#.#.%.%.d.",
"O o e R 2 o ; 1 C ;.7X;.z.:.v.v.p.5 % 9 9 z.MXS.S.S.b.f.b.n.n.S.c.c.x.u.0.$.$.$.$.$.$.$.%.q.f.f.",
". O @ M 4 $ y C ] ;.;.5.pXv.n.aX;.0 6 p ' >.Z.c.S.NXn.q.f.q.t.t.c.y.t.t.w.$.0.0.$.w.$.w.x.n.n.n.",
". O # 1 u E 5.-.y 1 ;.l.b.gXv.m.>.p a ;.e.m.c.t.q.t.t.q.t.x.D.J.J.J.J.N.y.y.y.Z.M.y.y.c.n.S.n.n.",
"  . O 1 y 7.v.7.$ o Z l.b.b.k.k.8.' ' ' F.F.y.w.0.q.q.r.w.r.M.J.U.CXK.J.J.J.D.G.A.Z.Z.Z.Z.n.c.n.",
"  . O # u 7.m.5.: # ;.m.b.x.m.x.x.>.e.>.Z.Z.Z.c.r.r.r.r.y.M.G.K.K.H.H.J.J.J.J.D.A.A.Z.Z.Z.S.Z.c.",
". O O @ @ u 5.:.; # p e.>.m.>.u.c.e.c.m.Z.Z.y.c.M.M.y.N.H.H.U.U.K.H.H.H.G.G.A.A.A.A.A.Z.Z.c.t.x.",
"O O O O O 1 >.E 1 : u p 7 ;.0 >.e.e.Z.Z.M.A.m.q.A.G.V.H.I.U.I.I.K.H.H.G.G.A.N.N.N.M.M.M.y.q.8.q.",
"1 4 @ O O e E M B , $ 7 9 >.7 p p >.t.Z.Z.u.k.q.N.A.C.H.H.I.GXY.I.P.C.V.N.N.B.M.M.M.y.y.u.9.| >.",
"4 4 O O O 3 g 1 b g ; # 0 -.5 a 6 ' 9.x.q.s.9.d.M.M.V.C.I.Y.JXKXP.C.V.V.B.B.M.y.r.r.q.q.w.@.| | ",
"4 4 o O o : * o 1 1 # : u Z C i 7 { 2.2.&.@.=.d.x.Z.N.C.P.KXJXJXY.P.V.V.B.M.r.w.0.0.0.#.@.@.| :.",
"2 4 o o o o O o # O # ; : 7 t C 9 p o.o.O.&.@.%.0.t.N.C.P.KXJXJXY.P.V.M.r.r.%.$.#.#.@.@.@.} { { ",
"1 4 O + X . . o o o # # # # $ 7 7 i o.o.O.i.i.9.9.f.b.Z.B.GXHXKXI.G.F.u.f.q.=.%.%.%.@.&.} | [ ] ",
"2 4   O . X O O . o # # # # # $ $ 0 1.2.2.2.i.s.f.b.S.D.J.GXHXHXAXJ.NXF.m.b.f.g.s.g.i.O.o. .L L ",
"2 4     + X X o o @ o @ # ; $ $ $ 7 Z 4.p.4.p.a.v.n.D.CXAXGXHXHXGXAXCXNXF.MXm.v.l.a.a.p.5.X.L K ",
"4 4 O O ; ; : 1 1 1 w n r w n S C S 4.uXuX4.2.p.v.F.CXCXAXAXHXHXAXAXZXCXVXVXVXv.l.iXiXz.4.<.K / ",
"4 4 , 8 8 3 b b m e u M M E E <.S ,.mXnXmX6.1.p.L.MXCXZXCXCXAXHXAXFXFXZXZXZXnXmXuXuXuX,X>X( P / ",
"4 e , q 8 b m M R 4 e R R ` <./ / ` ,XnXnX,X>X6.uXVXNXL.L.mXZXZXZXZXZXZXZXnXnXnXmXuX,X,X>X_ Q Q ",
"R 4 1 , w w 3 m m m R R R `  X/ / 7.zXSXSX,X>X7.z.uXmXmXmXnXZXFXFXFXFXFXnXSXcXzXzXzXlXlX-X_ ! ~ ",
"4 R 1 3 w 3 , 3 3 3 g R R  X` ^ _ `.oX:XxX4X:X:XzXzXzXzXmXL.nXSXnXSXSXSXcXcXcXlXlX X X|.|.}.Q.Q.",
"4 m , 8 b w b 8 1 : 3 M R ) ^ ).).! }.|.|. X;X-XzXSXDXHXFXFXDXDXDXbXbXbXxXlXlXkXxXxXkXkX|.}.T T ",
"g g , , 8 8 8 r t 7 : 1 e B R R Q Q ^ `.).T T z W Q _  XlXbXDXPXLXDXDXbXbXvXxXkXXX}.XX~.~.~.^.^.",
"e R , 8 8 8 w r t r t y y D e B B _  X|.|.^ T j h f k g m m G ^ ` xXvXvXvXbXvXvXkXjXjX~.~.^.~.^.",
"u 4 , 3 3 8 8 r r t i i i D y y D <.@X@X` ^ ~ ~ W j g N j g g 2 4 U T T ~.~.~.jXjXjXjXjXjX^.!.!.",
"m 4 1 4 8 , 8 r r t t i i C i y i <.7.:X-X_ ) ~ Q W N m g m g g f < f d s d U T !.!.!.!.!.!.!.!.",
"g R 1 1 , 8 8 8 8 n t t i i C y t Z 7.>X>X@X{.{.{._ ) G N j j g k k k d d f d d s d U U U U !.U ",
"m 4 ; 7 7 : 8 8 r r t t i i i C i Z 7.6.uX,X5X>X@X$X{._ K G Q W W h h h s s s s s s s s s s d U ",
"; > o : 7 : 7 7 8 r t t i i i C Z ] 5.p.6.p.uXuXSXuXSXcX:X_ / Q R W W j T U d d s s s - s s s - "
};
